solid OpenSCAD_Model
  facet normal 0 -1.22461e-016 -1
    outer loop
      vertex -48.2 -13.8 1.68996e-015
      vertex 48.2 13.8 -1.68996e-015
      vertex 48.2 -13.8 1.68996e-015
    endloop
  endfacet
  facet normal -0 -1.22461e-016 -1
    outer loop
      vertex 48.2 13.8 -1.68996e-015
      vertex -48.2 -13.8 1.68996e-015
      vertex -48.2 13.8 -1.68996e-015
    endloop
  endfacet
  facet normal -0 0 1
    outer loop
      vertex -48.2 13.8 2
      vertex 48.2 -13.8 2
      vertex 48.2 13.8 2
    endloop
  endfacet
  facet normal 0 0 1
    outer loop
      vertex 48.2 -13.8 2
      vertex -48.2 13.8 2
      vertex -48.2 -13.8 2
    endloop
  endfacet
  facet normal 0 1 -0
    outer loop
      vertex 48.2 13.8 -1.68996e-015
      vertex -48.2 13.8 2
      vertex 48.2 13.8 2
    endloop
  endfacet
  facet normal 0 1 0
    outer loop
      vertex -48.2 13.8 2
      vertex 48.2 13.8 -1.68996e-015
      vertex -48.2 13.8 -1.68996e-015
    endloop
  endfacet
  facet normal 1 -0 0
    outer loop
      vertex 48.2 -13.8 2
      vertex 48.2 13.8 -1.68996e-015
      vertex 48.2 13.8 2
    endloop
  endfacet
  facet normal 1 0 0
    outer loop
      vertex 48.2 13.8 -1.68996e-015
      vertex 48.2 -13.8 2
      vertex 48.2 -13.8 1.68996e-015
    endloop
  endfacet
  facet normal 0 -1 0
    outer loop
      vertex -48.2 -13.8 1.68996e-015
      vertex 48.2 -13.8 2
      vertex -48.2 -13.8 2
    endloop
  endfacet
  facet normal 0 -1 -0
    outer loop
      vertex 48.2 -13.8 2
      vertex -48.2 -13.8 1.68996e-015
      vertex 48.2 -13.8 1.68996e-015
    endloop
  endfacet
  facet normal -1 0 0
    outer loop
      vertex -48.2 -13.8 1.68996e-015
      vertex -48.2 13.8 2
      vertex -48.2 13.8 -1.68996e-015
    endloop
  endfacet
  facet normal -1 -0 0
    outer loop
      vertex -48.2 13.8 2
      vertex -48.2 -13.8 1.68996e-015
      vertex -48.2 -13.8 2
    endloop
  endfacet
endsolid OpenSCAD_Model
