solid OpenSCAD_Model
  facet normal 1 -0 0
    outer loop
      vertex -6.4865 -13.8 2
      vertex -6.4865 0.0299999 -3.67381e-018
      vertex -6.4865 0.0299999 2
    endloop
  endfacet
  facet normal 1 0 0
    outer loop
      vertex -6.4865 0.0299999 -3.67381e-018
      vertex -6.4865 -13.8 2
      vertex -6.4865 -13.8 1.68996e-015
    endloop
  endfacet
  facet normal -1 0 0
    outer loop
      vertex 6.4865 -13.8 1.68996e-015
      vertex 6.4865 0.0299999 2
      vertex 6.4865 0.0299999 -3.67381e-018
    endloop
  endfacet
  facet normal -1 -0 0
    outer loop
      vertex 6.4865 0.0299999 2
      vertex 6.4865 -13.8 1.68996e-015
      vertex 6.4865 -13.8 2
    endloop
  endfacet
  facet normal 0 -1 0
    outer loop
      vertex -6.4865 0.0299999 -3.67381e-018
      vertex 6.4865 0.0299999 2
      vertex -6.4865 0.0299999 2
    endloop
  endfacet
  facet normal 0 -1 -0
    outer loop
      vertex 6.4865 0.0299999 2
      vertex -6.4865 0.0299999 -3.67381e-018
      vertex 6.4865 0.0299999 -3.67381e-018
    endloop
  endfacet
  facet normal -1 0 0
    outer loop
      vertex -23.7 -13.8 1.68996e-015
      vertex -23.7 13.8 2
      vertex -23.7 13.8 -1.68996e-015
    endloop
  endfacet
  facet normal -1 -0 0
    outer loop
      vertex -23.7 13.8 2
      vertex -23.7 -13.8 1.68996e-015
      vertex -23.7 -13.8 2
    endloop
  endfacet
  facet normal -0 -1.22461e-016 -1
    outer loop
      vertex -6.4865 -13.8 1.68996e-015
      vertex -23.7 -13.8 1.68996e-015
      vertex -6.4865 0.0299999 -3.67381e-018
    endloop
  endfacet
  facet normal 0 -1.22461e-016 -1
    outer loop
      vertex 6.4865 0.0299999 -3.67381e-018
      vertex 23.7 -13.8 1.68996e-015
      vertex 6.4865 -13.8 1.68996e-015
    endloop
  endfacet
  facet normal 2.45383e-027 -1.22461e-016 -1
    outer loop
      vertex 23.7 -13.8 1.68996e-015
      vertex 6.4865 0.0299999 -3.67381e-018
      vertex 23.7 13.8 -1.68996e-015
    endloop
  endfacet
  facet normal 0 -1.22461e-016 -1
    outer loop
      vertex -6.4865 0.0299999 -3.67381e-018
      vertex 23.7 13.8 -1.68996e-015
      vertex 6.4865 0.0299999 -3.67381e-018
    endloop
  endfacet
  facet normal 0 -1.22461e-016 -1
    outer loop
      vertex -6.4865 0.0299999 -3.67381e-018
      vertex -23.7 13.8 -1.68996e-015
      vertex 23.7 13.8 -1.68996e-015
    endloop
  endfacet
  facet normal -2.45383e-027 -1.22461e-016 -1
    outer loop
      vertex -23.7 13.8 -1.68996e-015
      vertex -6.4865 0.0299999 -3.67381e-018
      vertex -23.7 -13.8 1.68996e-015
    endloop
  endfacet
  facet normal 1 -0 0
    outer loop
      vertex 23.7 -13.8 2
      vertex 23.7 13.8 -1.68996e-015
      vertex 23.7 13.8 2
    endloop
  endfacet
  facet normal 1 0 0
    outer loop
      vertex 23.7 13.8 -1.68996e-015
      vertex 23.7 -13.8 2
      vertex 23.7 -13.8 1.68996e-015
    endloop
  endfacet
  facet normal 0 -1 0
    outer loop
      vertex 6.4865 -13.8 1.68996e-015
      vertex 23.7 -13.8 2
      vertex 6.4865 -13.8 2
    endloop
  endfacet
  facet normal 0 -1 -0
    outer loop
      vertex 23.7 -13.8 2
      vertex 6.4865 -13.8 1.68996e-015
      vertex 23.7 -13.8 1.68996e-015
    endloop
  endfacet
  facet normal 0 -1 0
    outer loop
      vertex -23.7 -13.8 1.68996e-015
      vertex -6.4865 -13.8 2
      vertex -23.7 -13.8 2
    endloop
  endfacet
  facet normal 0 -1 -0
    outer loop
      vertex -6.4865 -13.8 2
      vertex -23.7 -13.8 1.68996e-015
      vertex -6.4865 -13.8 1.68996e-015
    endloop
  endfacet
  facet normal 0 0 1
    outer loop
      vertex 4.75 7.1 2
      vertex -4.75 7.1 2
      vertex 4.75 3 2
    endloop
  endfacet
  facet normal 0 0 1
    outer loop
      vertex 6.1 3 2
      vertex 4.75 3 2
      vertex 6.1 2.8 2
    endloop
  endfacet
  facet normal 0 0 1
    outer loop
      vertex 7.7 2.8 2
      vertex 6.4865 0.0299999 2
      vertex 7.7 -11.8 2
    endloop
  endfacet
  facet normal -0 0 1
    outer loop
      vertex 6.1 2.8 2
      vertex 6.4865 0.0299999 2
      vertex 7.7 2.8 2
    endloop
  endfacet
  facet normal 0 0 1
    outer loop
      vertex 4.75 3 2
      vertex 6.4865 0.0299999 2
      vertex 6.1 2.8 2
    endloop
  endfacet
  facet normal 0 0 1
    outer loop
      vertex -4.75 3 2
      vertex 4.75 3 2
      vertex -4.75 7.1 2
    endloop
  endfacet
  facet normal 0 0 1
    outer loop
      vertex 4.75 3 2
      vertex -4.75 3 2
      vertex 6.4865 0.0299999 2
    endloop
  endfacet
  facet normal 0 0 1
    outer loop
      vertex -6.1 2.8 2
      vertex -4.75 3 2
      vertex -6.1 3 2
    endloop
  endfacet
  facet normal 0 0 1
    outer loop
      vertex -6.4865 0.0299999 2
      vertex -4.75 3 2
      vertex -6.1 2.8 2
    endloop
  endfacet
  facet normal 0 0 1
    outer loop
      vertex -4.75 3 2
      vertex -6.4865 0.0299999 2
      vertex 6.4865 0.0299999 2
    endloop
  endfacet
  facet normal -0 0 1
    outer loop
      vertex -7.7 2.8 2
      vertex -6.4865 0.0299999 2
      vertex -6.1 2.8 2
    endloop
  endfacet
  facet normal 0 0 1
    outer loop
      vertex -7.7 -11.8 2
      vertex -6.4865 0.0299999 2
      vertex -7.7 2.8 2
    endloop
  endfacet
  facet normal 0 0 1
    outer loop
      vertex -6.4865 0.0299999 2
      vertex -7.7 -11.8 2
      vertex -6.4865 -13.8 2
    endloop
  endfacet
  facet normal -0 0 1
    outer loop
      vertex -9.7 -11.8 2
      vertex -6.4865 -13.8 2
      vertex -7.7 -11.8 2
    endloop
  endfacet
  facet normal 0 0 1
    outer loop
      vertex -9.7 -11.8 2
      vertex -23.7 -13.8 2
      vertex -6.4865 -13.8 2
    endloop
  endfacet
  facet normal 0 0 1
    outer loop
      vertex -9.7 8.5 2
      vertex -23.7 -13.8 2
      vertex -9.7 -11.8 2
    endloop
  endfacet
  facet normal 0 0 1
    outer loop
      vertex 23.7 13.8 2
      vertex 9.7 8.5 2
      vertex 23.7 -13.8 2
    endloop
  endfacet
  facet normal 0 0 1
    outer loop
      vertex 23.7 13.8 2
      vertex -9.7 8.5 2
      vertex 9.7 8.5 2
    endloop
  endfacet
  facet normal 0 0 1
    outer loop
      vertex -23.7 -13.8 2
      vertex -9.7 8.5 2
      vertex -23.7 13.8 2
    endloop
  endfacet
  facet normal -0 0 1
    outer loop
      vertex -23.7 13.8 2
      vertex -9.7 8.5 2
      vertex 23.7 13.8 2
    endloop
  endfacet
  facet normal -0 0 1
    outer loop
      vertex 9.7 -11.8 2
      vertex 23.7 -13.8 2
      vertex 9.7 8.5 2
    endloop
  endfacet
  facet normal 0 0 1
    outer loop
      vertex 6.4865 -13.8 2
      vertex 9.7 -11.8 2
      vertex 7.7 -11.8 2
    endloop
  endfacet
  facet normal 0 0 1
    outer loop
      vertex 9.7 -11.8 2
      vertex 6.4865 -13.8 2
      vertex 23.7 -13.8 2
    endloop
  endfacet
  facet normal 0 0 1
    outer loop
      vertex 6.4865 -13.8 2
      vertex 7.7 -11.8 2
      vertex 6.4865 0.0299999 2
    endloop
  endfacet
  facet normal 0 1 -0
    outer loop
      vertex 23.7 13.8 -1.68996e-015
      vertex -23.7 13.8 2
      vertex 23.7 13.8 2
    endloop
  endfacet
  facet normal 0 1 0
    outer loop
      vertex -23.7 13.8 2
      vertex 23.7 13.8 -1.68996e-015
      vertex -23.7 13.8 -1.68996e-015
    endloop
  endfacet
  facet normal -1 0 0
    outer loop
      vertex -9.7 -11.8 2
      vertex -9.7 8.5 9.22
      vertex -9.7 8.5 2
    endloop
  endfacet
  facet normal -1 -0 0
    outer loop
      vertex -9.7 8.5 9.22
      vertex -9.7 -11.8 2
      vertex -9.7 -11.8 9.22
    endloop
  endfacet
  facet normal 1 -0 0
    outer loop
      vertex 9.7 -11.8 9.22
      vertex 9.7 8.5 2
      vertex 9.7 8.5 9.22
    endloop
  endfacet
  facet normal 1 0 0
    outer loop
      vertex 9.7 8.5 2
      vertex 9.7 -11.8 9.22
      vertex 9.7 -11.8 2
    endloop
  endfacet
  facet normal 0 -1 0
    outer loop
      vertex 7.7 -11.8 5.91
      vertex 6.1 -11.8 9.22
      vertex 6.1 -11.8 5.91
    endloop
  endfacet
  facet normal 0 -1 0
    outer loop
      vertex 6.1 -11.8 9.22
      vertex 7.7 -11.8 5.91
      vertex 9.7 -11.8 9.22
    endloop
  endfacet
  facet normal 0 -1 0
    outer loop
      vertex 9.7 -11.8 2
      vertex 7.7 -11.8 5.91
      vertex 7.7 -11.8 2
    endloop
  endfacet
  facet normal 0 -1 0
    outer loop
      vertex 7.7 -11.8 5.91
      vertex 9.7 -11.8 2
      vertex 9.7 -11.8 9.22
    endloop
  endfacet
  facet normal 0 -1 0
    outer loop
      vertex -9.7 -11.8 9.22
      vertex -7.7 -11.8 5.91
      vertex -6.1 -11.8 9.22
    endloop
  endfacet
  facet normal 0 -1 0
    outer loop
      vertex -9.7 -11.8 2
      vertex -7.7 -11.8 5.91
      vertex -9.7 -11.8 9.22
    endloop
  endfacet
  facet normal 0 -1 -0
    outer loop
      vertex -7.7 -11.8 5.91
      vertex -9.7 -11.8 2
      vertex -7.7 -11.8 2
    endloop
  endfacet
  facet normal 0 -1 -0
    outer loop
      vertex -6.1 -11.8 9.22
      vertex -7.7 -11.8 5.91
      vertex -6.1 -11.8 5.91
    endloop
  endfacet
  facet normal 0 0 1
    outer loop
      vertex 9.7 8.5 9.22
      vertex 6.1 3 9.22
      vertex 9.7 -11.8 9.22
    endloop
  endfacet
  facet normal 0 0 1
    outer loop
      vertex 9.7 8.5 9.22
      vertex 4.75 7.1 9.22
      vertex 6.1 3 9.22
    endloop
  endfacet
  facet normal 0 0 1
    outer loop
      vertex 9.7 8.5 9.22
      vertex -4.75 7.1 9.22
      vertex 4.75 7.1 9.22
    endloop
  endfacet
  facet normal 0 0 1
    outer loop
      vertex -4.75 7.1 9.22
      vertex -6.1 3 9.22
      vertex -4.75 3 9.22
    endloop
  endfacet
  facet normal -0 0 1
    outer loop
      vertex -9.7 8.5 9.22
      vertex -4.75 7.1 9.22
      vertex 9.7 8.5 9.22
    endloop
  endfacet
  facet normal 0 0 1
    outer loop
      vertex -9.7 8.5 9.22
      vertex -6.1 3 9.22
      vertex -4.75 7.1 9.22
    endloop
  endfacet
  facet normal 0 0 1
    outer loop
      vertex -9.7 -11.8 9.22
      vertex -6.1 3 9.22
      vertex -9.7 8.5 9.22
    endloop
  endfacet
  facet normal 0 0 1
    outer loop
      vertex -6.1 3 9.22
      vertex -9.7 -11.8 9.22
      vertex -6.1 -11.8 9.22
    endloop
  endfacet
  facet normal 0 0 1
    outer loop
      vertex 9.7 -11.8 9.22
      vertex 6.1 3 9.22
      vertex 6.1 -11.8 9.22
    endloop
  endfacet
  facet normal 0 0 1
    outer loop
      vertex 6.1 3 9.22
      vertex 4.75 7.1 9.22
      vertex 4.75 3 9.22
    endloop
  endfacet
  facet normal 0 1 -0
    outer loop
      vertex 9.7 8.5 2
      vertex -9.7 8.5 9.22
      vertex 9.7 8.5 9.22
    endloop
  endfacet
  facet normal 0 1 0
    outer loop
      vertex -9.7 8.5 9.22
      vertex 9.7 8.5 2
      vertex -9.7 8.5 2
    endloop
  endfacet
  facet normal 1 -0 0
    outer loop
      vertex -7.7 -11.8 5.91
      vertex -7.7 2.8 2
      vertex -7.7 2.8 5.91
    endloop
  endfacet
  facet normal 1 0 0
    outer loop
      vertex -7.7 2.8 2
      vertex -7.7 -11.8 5.91
      vertex -7.7 -11.8 2
    endloop
  endfacet
  facet normal -1 0 0
    outer loop
      vertex 7.7 -11.8 2
      vertex 7.7 2.8 5.91
      vertex 7.7 2.8 2
    endloop
  endfacet
  facet normal -1 -0 0
    outer loop
      vertex 7.7 2.8 5.91
      vertex 7.7 -11.8 2
      vertex 7.7 -11.8 5.91
    endloop
  endfacet
  facet normal 0 0 -1
    outer loop
      vertex -7.7 -11.8 5.91
      vertex -6.1 2.8 5.91
      vertex -6.1 -11.8 5.91
    endloop
  endfacet
  facet normal -0 0 -1
    outer loop
      vertex -6.1 2.8 5.91
      vertex -7.7 -11.8 5.91
      vertex -7.7 2.8 5.91
    endloop
  endfacet
  facet normal 0 0 -1
    outer loop
      vertex 6.1 -11.8 5.91
      vertex 7.7 2.8 5.91
      vertex 7.7 -11.8 5.91
    endloop
  endfacet
  facet normal -0 0 -1
    outer loop
      vertex 7.7 2.8 5.91
      vertex 6.1 -11.8 5.91
      vertex 6.1 2.8 5.91
    endloop
  endfacet
  facet normal 0 -1 0
    outer loop
      vertex -7.7 2.8 2
      vertex -6.1 2.8 5.91
      vertex -7.7 2.8 5.91
    endloop
  endfacet
  facet normal 0 -1 -0
    outer loop
      vertex -6.1 2.8 5.91
      vertex -7.7 2.8 2
      vertex -6.1 2.8 2
    endloop
  endfacet
  facet normal 0 -1 0
    outer loop
      vertex 6.1 2.8 2
      vertex 7.7 2.8 5.91
      vertex 6.1 2.8 5.91
    endloop
  endfacet
  facet normal 0 -1 -0
    outer loop
      vertex 7.7 2.8 5.91
      vertex 6.1 2.8 2
      vertex 7.7 2.8 2
    endloop
  endfacet
  facet normal 1 0 0
    outer loop
      vertex -6.1 3 9.22
      vertex -6.1 2.8 5.91
      vertex -6.1 3 2
    endloop
  endfacet
  facet normal 1 -0 0
    outer loop
      vertex -6.1 -11.8 9.22
      vertex -6.1 2.8 5.91
      vertex -6.1 3 9.22
    endloop
  endfacet
  facet normal 1 0 0
    outer loop
      vertex -6.1 2.8 5.91
      vertex -6.1 -11.8 9.22
      vertex -6.1 -11.8 5.91
    endloop
  endfacet
  facet normal 1 0 0
    outer loop
      vertex -6.1 3 2
      vertex -6.1 2.8 5.91
      vertex -6.1 2.8 2
    endloop
  endfacet
  facet normal -1 0 0
    outer loop
      vertex 6.1 2.8 5.91
      vertex 6.1 3 2
      vertex 6.1 2.8 2
    endloop
  endfacet
  facet normal -1 0 0
    outer loop
      vertex 6.1 3 2
      vertex 6.1 2.8 5.91
      vertex 6.1 3 9.22
    endloop
  endfacet
  facet normal -1 0 0
    outer loop
      vertex 6.1 -11.8 9.22
      vertex 6.1 2.8 5.91
      vertex 6.1 -11.8 5.91
    endloop
  endfacet
  facet normal -1 0 0
    outer loop
      vertex 6.1 2.8 5.91
      vertex 6.1 -11.8 9.22
      vertex 6.1 3 9.22
    endloop
  endfacet
  facet normal 0 -1 0
    outer loop
      vertex -6.1 3 2
      vertex -4.75 3 9.22
      vertex -6.1 3 9.22
    endloop
  endfacet
  facet normal 0 -1 -0
    outer loop
      vertex -4.75 3 9.22
      vertex -6.1 3 2
      vertex -4.75 3 2
    endloop
  endfacet
  facet normal 0 -1 0
    outer loop
      vertex 4.75 3 2
      vertex 6.1 3 9.22
      vertex 4.75 3 9.22
    endloop
  endfacet
  facet normal 0 -1 -0
    outer loop
      vertex 6.1 3 9.22
      vertex 4.75 3 2
      vertex 6.1 3 2
    endloop
  endfacet
  facet normal 1 -0 0
    outer loop
      vertex -4.75 3 9.22
      vertex -4.75 7.1 2
      vertex -4.75 7.1 9.22
    endloop
  endfacet
  facet normal 1 0 0
    outer loop
      vertex -4.75 7.1 2
      vertex -4.75 3 9.22
      vertex -4.75 3 2
    endloop
  endfacet
  facet normal -1 0 0
    outer loop
      vertex 4.75 3 2
      vertex 4.75 7.1 9.22
      vertex 4.75 7.1 2
    endloop
  endfacet
  facet normal -1 -0 0
    outer loop
      vertex 4.75 7.1 9.22
      vertex 4.75 3 2
      vertex 4.75 3 9.22
    endloop
  endfacet
  facet normal 0 -1 0
    outer loop
      vertex -4.75 7.1 2
      vertex 4.75 7.1 9.22
      vertex -4.75 7.1 9.22
    endloop
  endfacet
  facet normal 0 -1 -0
    outer loop
      vertex 4.75 7.1 9.22
      vertex -4.75 7.1 2
      vertex 4.75 7.1 2
    endloop
  endfacet
endsolid OpenSCAD_Model
